<svg width="12" height="12" viewBox="0 0 12 12" fill="none" xmlns="http://www.w3.org/2000/svg">
<path fill-rule="evenodd" clip-rule="evenodd" d="M5.07098 1.26666C5.52693 0.405419 6.7607 0.405413 7.21665 1.26666L11.6711 9.6807C12.0992 10.4892 11.5131 11.4626 10.5983 11.4626H1.68933C0.774558 11.4626 0.188479 10.4892 0.61649 9.68071L5.07098 1.26666ZM10.5983 10.2487L6.14382 1.83464L1.68933 10.2487L10.5983 10.2487Z" fill="#E40000"/>
<path d="M5.53686 4.78609C5.53686 4.45088 5.80861 4.17914 6.14382 4.17914C6.47903 4.17914 6.75077 4.45088 6.75077 4.78609V7.21391C6.75077 7.54912 6.47903 7.82086 6.14382 7.82086C5.80861 7.82086 5.53686 7.54912 5.53686 7.21391V4.78609Z" fill="#E40000"/>
<path d="M6.75077 9.03477C6.75077 9.36998 6.47903 9.64172 6.14382 9.64172C5.80861 9.64172 5.53686 9.36998 5.53686 9.03477C5.53686 8.69956 5.80861 8.42782 6.14382 8.42782C6.47903 8.42782 6.75077 8.69956 6.75077 9.03477Z" fill="#E40000"/>
</svg>
